<svg version="1.1" id="Calque_1" xmlns="http://www.w3.org/2000/svg" x="0" y="0" viewBox="0 0 75.9 132.9" xml:space="preserve"><style>.st0{fill:#323232}</style><path class="st0" d="M0 37.9h38c-10.5 0-19 8.5-19 19C19 46.4 10.5 37.9 0 37.9zM0 56.9h38c-10.5 0-19 8.5-19 19C19 65.4 10.5 56.9 0 56.9zM0 75.9h38c-10.5 0-19 8.5-19 19C19 84.4 10.5 75.9 0 75.9zM0 94.9h38c-10.5 0-19 8.5-19 19C19 103.4 10.5 94.9 0 94.9zM0 113.9h38c-10.5 0-19 8.5-19 19C19 122.4 10.5 113.9 0 113.9zM38 94.9c10.5 0 19-8.5 19-19 0 10.5 8.5 19 19 19H38zM38 75.9c10.5 0 19-8.5 19-19 0 10.5 8.5 19 19 19H38zM38 57c10.5 0 19-8.5 19-19 0 10.5 8.5 19 19 19H38zM38 38c10.5 0 19-8.5 19-19 0 10.5 8.5 19 19 19H38zM38 19c10.5 0 19-8.5 19-19 0 10.5 8.5 19 19 19H38z"/></svg>