<svg version="1.1" id="Calque_1" xmlns="http://www.w3.org/2000/svg" x="0" y="0" viewBox="0 0 962 842" xml:space="preserve"><style>.st0{fill-rule:evenodd;clip-rule:evenodd;fill:#323232}</style><path id="Rectangle" class="st0" d="M0 60H2V62H0z"/><path id="Rectangle-Copy-2" class="st0" d="M60 60H62V62H60z"/><path id="Rectangle-Copy-7" class="st0" d="M120 60H122V62H120z"/><path id="Rectangle-Copy-8" class="st0" d="M180 60H182V62H180z"/><path id="Rectangle-Copy-9" class="st0" d="M240 60H242V62H240z"/><path id="Rectangle-Copy-10" class="st0" d="M300 60H302V62H300z"/><path id="Rectangle-Copy-11" class="st0" d="M360 60H362V62H360z"/><path id="Rectangle-Copy-12" class="st0" d="M420 60H422V62H420z"/><path id="Rectangle-Copy-13" class="st0" d="M480 60H482V62H480z"/><path id="Rectangle-Copy-14" class="st0" d="M540 60H542V62H540z"/><path id="Rectangle-Copy-15" class="st0" d="M600 60H602V62H600z"/><path id="Rectangle-Copy-16" class="st0" d="M660 60H662V62H660z"/><path id="Rectangle-Copy-17" class="st0" d="M720 60H722V62H720z"/><path id="Rectangle-Copy-18" class="st0" d="M780 60H782V62H780z"/><path id="Rectangle-Copy-19" class="st0" d="M840 60H842V62H840z"/><path id="Rectangle-Copy-20" class="st0" d="M900 60H902V62H900z"/><path id="Rectangle-Copy-21" class="st0" d="M960 60H962V62H960z"/><path id="Rectangle_1_" class="st0" d="M0 120H2V122H0z"/><path id="Rectangle-Copy-2_1_" class="st0" d="M60 120H62V122H60z"/><path id="Rectangle-Copy-7_1_" class="st0" d="M120 120H122V122H120z"/><path id="Rectangle-Copy-8_1_" class="st0" d="M180 120H182V122H180z"/><path id="Rectangle-Copy-9_1_" class="st0" d="M240 120H242V122H240z"/><path id="Rectangle-Copy-10_1_" class="st0" d="M300 120H302V122H300z"/><path id="Rectangle-Copy-11_1_" class="st0" d="M360 120H362V122H360z"/><path id="Rectangle-Copy-12_1_" class="st0" d="M420 120H422V122H420z"/><path id="Rectangle-Copy-13_1_" class="st0" d="M480 120H482V122H480z"/><path id="Rectangle-Copy-14_1_" class="st0" d="M540 120H542V122H540z"/><path id="Rectangle-Copy-15_1_" class="st0" d="M600 120H602V122H600z"/><path id="Rectangle-Copy-16_1_" class="st0" d="M660 120H662V122H660z"/><path id="Rectangle-Copy-17_1_" class="st0" d="M720 120H722V122H720z"/><path id="Rectangle-Copy-18_1_" class="st0" d="M780 120H782V122H780z"/><path id="Rectangle-Copy-19_1_" class="st0" d="M840 120H842V122H840z"/><path id="Rectangle-Copy-20_1_" class="st0" d="M900 120H902V122H900z"/><path id="Rectangle-Copy-21_1_" class="st0" d="M960 120H962V122H960z"/><path id="Rectangle_2_" class="st0" d="M0 180H2V182H0z"/><path id="Rectangle-Copy-2_2_" class="st0" d="M60 180H62V182H60z"/><path id="Rectangle-Copy-7_2_" class="st0" d="M120 180H122V182H120z"/><path id="Rectangle-Copy-8_2_" class="st0" d="M180 180H182V182H180z"/><path id="Rectangle-Copy-9_2_" class="st0" d="M240 180H242V182H240z"/><path id="Rectangle-Copy-10_2_" class="st0" d="M300 180H302V182H300z"/><path id="Rectangle-Copy-11_2_" class="st0" d="M360 180H362V182H360z"/><path id="Rectangle-Copy-12_2_" class="st0" d="M420 180H422V182H420z"/><path id="Rectangle-Copy-13_2_" class="st0" d="M480 180H482V182H480z"/><path id="Rectangle-Copy-14_2_" class="st0" d="M540 180H542V182H540z"/><path id="Rectangle-Copy-15_2_" class="st0" d="M600 180H602V182H600z"/><path id="Rectangle-Copy-16_2_" class="st0" d="M660 180H662V182H660z"/><path id="Rectangle-Copy-17_2_" class="st0" d="M720 180H722V182H720z"/><path id="Rectangle-Copy-18_2_" class="st0" d="M780 180H782V182H780z"/><path id="Rectangle-Copy-19_2_" class="st0" d="M840 180H842V182H840z"/><path id="Rectangle-Copy-20_2_" class="st0" d="M900 180H902V182H900z"/><path id="Rectangle-Copy-21_2_" class="st0" d="M960 180H962V182H960z"/><path id="Rectangle_3_" class="st0" d="M0 240H2V242H0z"/><path id="Rectangle-Copy-2_3_" class="st0" d="M60 240H62V242H60z"/><path id="Rectangle-Copy-7_3_" class="st0" d="M120 240H122V242H120z"/><path id="Rectangle-Copy-8_3_" class="st0" d="M180 240H182V242H180z"/><path id="Rectangle-Copy-9_3_" class="st0" d="M240 240H242V242H240z"/><path id="Rectangle-Copy-10_3_" class="st0" d="M300 240H302V242H300z"/><path id="Rectangle-Copy-11_3_" class="st0" d="M360 240H362V242H360z"/><path id="Rectangle-Copy-12_3_" class="st0" d="M420 240H422V242H420z"/><path id="Rectangle-Copy-13_3_" class="st0" d="M480 240H482V242H480z"/><path id="Rectangle-Copy-14_3_" class="st0" d="M540 240H542V242H540z"/><path id="Rectangle-Copy-15_3_" class="st0" d="M600 240H602V242H600z"/><path id="Rectangle-Copy-16_3_" class="st0" d="M660 240H662V242H660z"/><path id="Rectangle-Copy-17_3_" class="st0" d="M720 240H722V242H720z"/><path id="Rectangle-Copy-18_3_" class="st0" d="M780 240H782V242H780z"/><path id="Rectangle-Copy-19_3_" class="st0" d="M840 240H842V242H840z"/><path id="Rectangle-Copy-20_3_" class="st0" d="M900 240H902V242H900z"/><path id="Rectangle-Copy-21_3_" class="st0" d="M960 240H962V242H960z"/><path id="Rectangle_4_" class="st0" d="M0 300H2V302H0z"/><path id="Rectangle-Copy-2_4_" class="st0" d="M60 300H62V302H60z"/><path id="Rectangle-Copy-7_4_" class="st0" d="M120 300H122V302H120z"/><path id="Rectangle-Copy-8_4_" class="st0" d="M180 300H182V302H180z"/><path id="Rectangle-Copy-9_4_" class="st0" d="M240 300H242V302H240z"/><path id="Rectangle-Copy-10_4_" class="st0" d="M300 300H302V302H300z"/><path id="Rectangle-Copy-11_4_" class="st0" d="M360 300H362V302H360z"/><path id="Rectangle-Copy-12_4_" class="st0" d="M420 300H422V302H420z"/><path id="Rectangle-Copy-13_4_" class="st0" d="M480 300H482V302H480z"/><path id="Rectangle-Copy-14_4_" class="st0" d="M540 300H542V302H540z"/><path id="Rectangle-Copy-15_4_" class="st0" d="M600 300H602V302H600z"/><path id="Rectangle-Copy-16_4_" class="st0" d="M660 300H662V302H660z"/><path id="Rectangle-Copy-17_4_" class="st0" d="M720 300H722V302H720z"/><path id="Rectangle-Copy-18_4_" class="st0" d="M780 300H782V302H780z"/><path id="Rectangle-Copy-19_4_" class="st0" d="M840 300H842V302H840z"/><path id="Rectangle-Copy-20_4_" class="st0" d="M900 300H902V302H900z"/><path id="Rectangle-Copy-21_4_" class="st0" d="M960 300H962V302H960z"/><path id="Rectangle_5_" class="st0" d="M0 360H2V362H0z"/><path id="Rectangle-Copy-2_5_" class="st0" d="M60 360H62V362H60z"/><path id="Rectangle-Copy-7_5_" class="st0" d="M120 360H122V362H120z"/><path id="Rectangle-Copy-8_5_" class="st0" d="M180 360H182V362H180z"/><path id="Rectangle-Copy-9_5_" class="st0" d="M240 360H242V362H240z"/><path id="Rectangle-Copy-10_5_" class="st0" d="M300 360H302V362H300z"/><path id="Rectangle-Copy-11_5_" class="st0" d="M360 360H362V362H360z"/><path id="Rectangle-Copy-12_5_" class="st0" d="M420 360H422V362H420z"/><path id="Rectangle-Copy-13_5_" class="st0" d="M480 360H482V362H480z"/><path id="Rectangle-Copy-14_5_" class="st0" d="M540 360H542V362H540z"/><path id="Rectangle-Copy-15_5_" class="st0" d="M600 360H602V362H600z"/><path id="Rectangle-Copy-16_5_" class="st0" d="M660 360H662V362H660z"/><path id="Rectangle-Copy-17_5_" class="st0" d="M720 360H722V362H720z"/><path id="Rectangle-Copy-18_5_" class="st0" d="M780 360H782V362H780z"/><path id="Rectangle-Copy-19_5_" class="st0" d="M840 360H842V362H840z"/><path id="Rectangle-Copy-20_5_" class="st0" d="M900 360H902V362H900z"/><path id="Rectangle-Copy-21_5_" class="st0" d="M960 360H962V362H960z"/><path id="Rectangle_6_" class="st0" d="M0 420H2V422H0z"/><path id="Rectangle-Copy-2_6_" class="st0" d="M60 420H62V422H60z"/><path id="Rectangle-Copy-7_6_" class="st0" d="M120 420H122V422H120z"/><path id="Rectangle-Copy-8_6_" class="st0" d="M180 420H182V422H180z"/><path id="Rectangle-Copy-9_6_" class="st0" d="M240 420H242V422H240z"/><path id="Rectangle-Copy-10_6_" class="st0" d="M300 420H302V422H300z"/><path id="Rectangle-Copy-11_6_" class="st0" d="M360 420H362V422H360z"/><path id="Rectangle-Copy-12_6_" class="st0" d="M420 420H422V422H420z"/><path id="Rectangle-Copy-13_6_" class="st0" d="M480 420H482V422H480z"/><path id="Rectangle-Copy-14_6_" class="st0" d="M540 420H542V422H540z"/><path id="Rectangle-Copy-15_6_" class="st0" d="M600 420H602V422H600z"/><path id="Rectangle-Copy-16_6_" class="st0" d="M660 420H662V422H660z"/><path id="Rectangle-Copy-17_6_" class="st0" d="M720 420H722V422H720z"/><path id="Rectangle-Copy-18_6_" class="st0" d="M780 420H782V422H780z"/><path id="Rectangle-Copy-19_6_" class="st0" d="M840 420H842V422H840z"/><path id="Rectangle-Copy-20_6_" class="st0" d="M900 420H902V422H900z"/><path id="Rectangle-Copy-21_6_" class="st0" d="M960 420H962V422H960z"/><path id="Rectangle_7_" class="st0" d="M0 480H2V482H0z"/><path id="Rectangle-Copy-2_7_" class="st0" d="M60 480H62V482H60z"/><path id="Rectangle-Copy-7_7_" class="st0" d="M120 480H122V482H120z"/><path id="Rectangle-Copy-8_7_" class="st0" d="M180 480H182V482H180z"/><path id="Rectangle-Copy-9_7_" class="st0" d="M240 480H242V482H240z"/><path id="Rectangle-Copy-10_7_" class="st0" d="M300 480H302V482H300z"/><path id="Rectangle-Copy-11_7_" class="st0" d="M360 480H362V482H360z"/><path id="Rectangle-Copy-12_7_" class="st0" d="M420 480H422V482H420z"/><path id="Rectangle-Copy-13_7_" class="st0" d="M480 480H482V482H480z"/><path id="Rectangle-Copy-14_7_" class="st0" d="M540 480H542V482H540z"/><path id="Rectangle-Copy-15_7_" class="st0" d="M600 480H602V482H600z"/><path id="Rectangle-Copy-16_7_" class="st0" d="M660 480H662V482H660z"/><path id="Rectangle-Copy-17_7_" class="st0" d="M720 480H722V482H720z"/><path id="Rectangle-Copy-18_7_" class="st0" d="M780 480H782V482H780z"/><path id="Rectangle-Copy-19_7_" class="st0" d="M840 480H842V482H840z"/><path id="Rectangle-Copy-20_7_" class="st0" d="M900 480H902V482H900z"/><path id="Rectangle-Copy-21_7_" class="st0" d="M960 480H962V482H960z"/><path id="Rectangle_8_" class="st0" d="M0 540H2V542H0z"/><path id="Rectangle-Copy-2_8_" class="st0" d="M60 540H62V542H60z"/><path id="Rectangle-Copy-7_8_" class="st0" d="M120 540H122V542H120z"/><path id="Rectangle-Copy-8_8_" class="st0" d="M180 540H182V542H180z"/><path id="Rectangle-Copy-9_8_" class="st0" d="M240 540H242V542H240z"/><path id="Rectangle-Copy-10_8_" class="st0" d="M300 540H302V542H300z"/><path id="Rectangle-Copy-11_8_" class="st0" d="M360 540H362V542H360z"/><path id="Rectangle-Copy-12_8_" class="st0" d="M420 540H422V542H420z"/><path id="Rectangle-Copy-13_8_" class="st0" d="M480 540H482V542H480z"/><path id="Rectangle-Copy-14_8_" class="st0" d="M540 540H542V542H540z"/><path id="Rectangle-Copy-15_8_" class="st0" d="M600 540H602V542H600z"/><path id="Rectangle-Copy-16_8_" class="st0" d="M660 540H662V542H660z"/><path id="Rectangle-Copy-17_8_" class="st0" d="M720 540H722V542H720z"/><path id="Rectangle-Copy-18_8_" class="st0" d="M780 540H782V542H780z"/><path id="Rectangle-Copy-19_8_" class="st0" d="M840 540H842V542H840z"/><path id="Rectangle-Copy-20_8_" class="st0" d="M900 540H902V542H900z"/><path id="Rectangle-Copy-21_8_" class="st0" d="M960 540H962V542H960z"/><path id="Rectangle_9_" class="st0" d="M0 600H2V602H0z"/><path id="Rectangle-Copy-2_9_" class="st0" d="M60 600H62V602H60z"/><path id="Rectangle-Copy-7_9_" class="st0" d="M120 600H122V602H120z"/><path id="Rectangle-Copy-8_9_" class="st0" d="M180 600H182V602H180z"/><path id="Rectangle-Copy-9_9_" class="st0" d="M240 600H242V602H240z"/><path id="Rectangle-Copy-10_9_" class="st0" d="M300 600H302V602H300z"/><path id="Rectangle-Copy-11_9_" class="st0" d="M360 600H362V602H360z"/><path id="Rectangle-Copy-12_9_" class="st0" d="M420 600H422V602H420z"/><path id="Rectangle-Copy-13_9_" class="st0" d="M480 600H482V602H480z"/><path id="Rectangle-Copy-14_9_" class="st0" d="M540 600H542V602H540z"/><path id="Rectangle-Copy-15_9_" class="st0" d="M600 600H602V602H600z"/><path id="Rectangle-Copy-16_9_" class="st0" d="M660 600H662V602H660z"/><path id="Rectangle-Copy-17_9_" class="st0" d="M720 600H722V602H720z"/><path id="Rectangle-Copy-18_9_" class="st0" d="M780 600H782V602H780z"/><path id="Rectangle-Copy-19_9_" class="st0" d="M840 600H842V602H840z"/><path id="Rectangle-Copy-20_9_" class="st0" d="M900 600H902V602H900z"/><path id="Rectangle-Copy-21_9_" class="st0" d="M960 600H962V602H960z"/><path id="Rectangle_10_" class="st0" d="M0 660H2V662H0z"/><path id="Rectangle-Copy-2_10_" class="st0" d="M60 660H62V662H60z"/><path id="Rectangle-Copy-7_10_" class="st0" d="M120 660H122V662H120z"/><path id="Rectangle-Copy-8_10_" class="st0" d="M180 660H182V662H180z"/><path id="Rectangle-Copy-9_10_" class="st0" d="M240 660H242V662H240z"/><path id="Rectangle-Copy-10_10_" class="st0" d="M300 660H302V662H300z"/><path id="Rectangle-Copy-11_10_" class="st0" d="M360 660H362V662H360z"/><path id="Rectangle-Copy-12_10_" class="st0" d="M420 660H422V662H420z"/><path id="Rectangle-Copy-13_10_" class="st0" d="M480 660H482V662H480z"/><path id="Rectangle-Copy-14_10_" class="st0" d="M540 660H542V662H540z"/><path id="Rectangle-Copy-15_10_" class="st0" d="M600 660H602V662H600z"/><path id="Rectangle-Copy-16_10_" class="st0" d="M660 660H662V662H660z"/><path id="Rectangle-Copy-17_10_" class="st0" d="M720 660H722V662H720z"/><path id="Rectangle-Copy-18_10_" class="st0" d="M780 660H782V662H780z"/><path id="Rectangle-Copy-19_10_" class="st0" d="M840 660H842V662H840z"/><path id="Rectangle-Copy-20_10_" class="st0" d="M900 660H902V662H900z"/><path id="Rectangle-Copy-21_10_" class="st0" d="M960 660H962V662H960z"/><path id="Rectangle_11_" class="st0" d="M0 720H2V722H0z"/><path id="Rectangle-Copy-2_11_" class="st0" d="M60 720H62V722H60z"/><path id="Rectangle-Copy-7_11_" class="st0" d="M120 720H122V722H120z"/><path id="Rectangle-Copy-8_11_" class="st0" d="M180 720H182V722H180z"/><path id="Rectangle-Copy-9_11_" class="st0" d="M240 720H242V722H240z"/><path id="Rectangle-Copy-10_11_" class="st0" d="M300 720H302V722H300z"/><path id="Rectangle-Copy-11_11_" class="st0" d="M360 720H362V722H360z"/><path id="Rectangle-Copy-12_11_" class="st0" d="M420 720H422V722H420z"/><path id="Rectangle-Copy-13_11_" class="st0" d="M480 720H482V722H480z"/><path id="Rectangle-Copy-14_11_" class="st0" d="M540 720H542V722H540z"/><path id="Rectangle-Copy-15_11_" class="st0" d="M600 720H602V722H600z"/><path id="Rectangle-Copy-16_11_" class="st0" d="M660 720H662V722H660z"/><path id="Rectangle-Copy-17_11_" class="st0" d="M720 720H722V722H720z"/><path id="Rectangle-Copy-18_11_" class="st0" d="M780 720H782V722H780z"/><path id="Rectangle-Copy-19_11_" class="st0" d="M840 720H842V722H840z"/><path id="Rectangle-Copy-20_11_" class="st0" d="M900 720H902V722H900z"/><path id="Rectangle-Copy-21_11_" class="st0" d="M960 720H962V722H960z"/><path id="Rectangle_12_" class="st0" d="M0 780H2V782H0z"/><path id="Rectangle-Copy-2_12_" class="st0" d="M60 780H62V782H60z"/><path id="Rectangle-Copy-7_12_" class="st0" d="M120 780H122V782H120z"/><path id="Rectangle-Copy-8_12_" class="st0" d="M180 780H182V782H180z"/><path id="Rectangle-Copy-9_12_" class="st0" d="M240 780H242V782H240z"/><path id="Rectangle-Copy-10_12_" class="st0" d="M300 780H302V782H300z"/><path id="Rectangle-Copy-11_12_" class="st0" d="M360 780H362V782H360z"/><path id="Rectangle-Copy-12_12_" class="st0" d="M420 780H422V782H420z"/><path id="Rectangle-Copy-13_12_" class="st0" d="M480 780H482V782H480z"/><path id="Rectangle-Copy-14_12_" class="st0" d="M540 780H542V782H540z"/><path id="Rectangle-Copy-15_12_" class="st0" d="M600 780H602V782H600z"/><path id="Rectangle-Copy-16_12_" class="st0" d="M660 780H662V782H660z"/><path id="Rectangle-Copy-17_12_" class="st0" d="M720 780H722V782H720z"/><path id="Rectangle-Copy-18_12_" class="st0" d="M780 780H782V782H780z"/><path id="Rectangle-Copy-19_12_" class="st0" d="M840 780H842V782H840z"/><path id="Rectangle-Copy-20_12_" class="st0" d="M900 780H902V782H900z"/><path id="Rectangle-Copy-21_12_" class="st0" d="M960 780H962V782H960z"/><path id="Rectangle_13_" class="st0" d="M0 840H2V842H0z"/><path id="Rectangle-Copy-2_13_" class="st0" d="M60 840H62V842H60z"/><path id="Rectangle-Copy-7_13_" class="st0" d="M120 840H122V842H120z"/><path id="Rectangle-Copy-8_13_" class="st0" d="M180 840H182V842H180z"/><path id="Rectangle-Copy-9_13_" class="st0" d="M240 840H242V842H240z"/><path id="Rectangle-Copy-10_13_" class="st0" d="M300 840H302V842H300z"/><path id="Rectangle-Copy-11_13_" class="st0" d="M360 840H362V842H360z"/><path id="Rectangle-Copy-12_13_" class="st0" d="M420 840H422V842H420z"/><path id="Rectangle-Copy-13_13_" class="st0" d="M480 840H482V842H480z"/><path id="Rectangle-Copy-14_13_" class="st0" d="M540 840H542V842H540z"/><path id="Rectangle-Copy-15_13_" class="st0" d="M600 840H602V842H600z"/><path id="Rectangle-Copy-16_13_" class="st0" d="M660 840H662V842H660z"/><path id="Rectangle-Copy-17_13_" class="st0" d="M720 840H722V842H720z"/><path id="Rectangle-Copy-18_13_" class="st0" d="M780 840H782V842H780z"/><path id="Rectangle-Copy-19_13_" class="st0" d="M840 840H842V842H840z"/><path id="Rectangle-Copy-20_13_" class="st0" d="M900 840H902V842H900z"/><path id="Rectangle-Copy-21_13_" class="st0" d="M960 840H962V842H960z"/><path id="Rectangle_14_" class="st0" d="M0 0H2V2H0z"/><path id="Rectangle-Copy-2_14_" class="st0" d="M60 0H62V2H60z"/><path id="Rectangle-Copy-7_14_" class="st0" d="M120 0H122V2H120z"/><path id="Rectangle-Copy-8_14_" class="st0" d="M180 0H182V2H180z"/><path id="Rectangle-Copy-9_14_" class="st0" d="M240 0H242V2H240z"/><path id="Rectangle-Copy-10_14_" class="st0" d="M300 0H302V2H300z"/><path id="Rectangle-Copy-11_14_" class="st0" d="M360 0H362V2H360z"/><path id="Rectangle-Copy-12_14_" class="st0" d="M420 0H422V2H420z"/><path id="Rectangle-Copy-13_14_" class="st0" d="M480 0H482V2H480z"/><path id="Rectangle-Copy-14_14_" class="st0" d="M540 0H542V2H540z"/><path id="Rectangle-Copy-15_14_" class="st0" d="M600 0H602V2H600z"/><path id="Rectangle-Copy-16_14_" class="st0" d="M660 0H662V2H660z"/><path id="Rectangle-Copy-17_14_" class="st0" d="M720 0H722V2H720z"/><path id="Rectangle-Copy-18_14_" class="st0" d="M780 0H782V2H780z"/><path id="Rectangle-Copy-19_14_" class="st0" d="M840 0H842V2H840z"/><path id="Rectangle-Copy-20_14_" class="st0" d="M900 0H902V2H900z"/><path id="Rectangle-Copy-21_14_" class="st0" d="M960 0H962V2H960z"/></svg>